<mxfile host="Electron" modified="2024-06-26T12:43:14.116Z" agent="Mozilla/5.0 (Windows NT 10.0; Win64; x64) AppleWebKit/537.36 (KHTML, like Gecko) draw.io/24.6.1 Chrome/124.0.6367.207 Electron/30.0.6 Safari/537.36" etag="cIV6Ti5PoUC9j_ETs_BC" version="24.6.1" type="device">
  <diagram id="C5RBs43oDa-KdzZeNtuy" name="Page-1">
    <mxGraphModel dx="1098" dy="820" grid="1" gridSize="10" guides="1" tooltips="1" connect="1" arrows="1" fold="1" page="1" pageScale="1" pageWidth="827" pageHeight="1169" math="0" shadow="0">
      <root>
        <mxCell id="WIyWlLk6GJQsqaUBKTNV-0" />
        <mxCell id="WIyWlLk6GJQsqaUBKTNV-1" parent="WIyWlLk6GJQsqaUBKTNV-0" />
        <mxCell id="RjqKDxn6-Rp8gavY7gRw-0" value="&lt;h2 style=&quot;box-sizing: border-box; margin-top: var(--base-size-24); margin-bottom: var(--base-size-16); font-weight: var(--base-text-weight-semibold, 600); line-height: 1.25; padding-bottom: 0.3em; border-bottom: 1px solid var(--borderColor-muted, var(--color-border-muted)); color: rgb(31, 35, 40); font-family: -apple-system, BlinkMacSystemFont, &amp;quot;Segoe UI&amp;quot;, &amp;quot;Noto Sans&amp;quot;, Helvetica, Arial, sans-serif, &amp;quot;Apple Color Emoji&amp;quot;, &amp;quot;Segoe UI Emoji&amp;quot;; text-align: start; background-color: rgb(255, 255, 255);&quot; dir=&quot;auto&quot; class=&quot;heading-element&quot; tabindex=&quot;-1&quot;&gt;POO - Desafio Modelagem e Diagramação de um Componente iPhone&lt;/h2&gt;" style="text;strokeColor=none;align=center;fillColor=none;html=1;verticalAlign=middle;whiteSpace=wrap;rounded=0;" parent="WIyWlLk6GJQsqaUBKTNV-1" vertex="1">
          <mxGeometry x="109" y="30" width="610" height="30" as="geometry" />
        </mxCell>
        <mxCell id="RjqKDxn6-Rp8gavY7gRw-67" value="" style="edgeStyle=orthogonalEdgeStyle;rounded=0;orthogonalLoop=1;jettySize=auto;html=1;entryX=0.75;entryY=0;entryDx=0;entryDy=0;" parent="WIyWlLk6GJQsqaUBKTNV-1" source="RjqKDxn6-Rp8gavY7gRw-9" target="RjqKDxn6-Rp8gavY7gRw-14" edge="1">
          <mxGeometry relative="1" as="geometry" />
        </mxCell>
        <mxCell id="RjqKDxn6-Rp8gavY7gRw-9" value="&lt;p style=&quot;margin:0px;margin-top:4px;text-align:center;&quot;&gt;&lt;i&gt;&amp;lt;&amp;lt;Interface&amp;gt;&amp;gt;&lt;/i&gt;&lt;br&gt;&lt;span style=&quot;color: rgb(19, 19, 0); font-family: &amp;quot;trebuchet ms&amp;quot;, verdana, arial, sans-serif; font-size: 16px; font-weight: 700; text-align: start; text-wrap: nowrap; background-color: rgb(255, 255, 255);&quot;&gt;ReprodutorMusical&lt;/span&gt;&lt;br&gt;&lt;/p&gt;&lt;hr size=&quot;1&quot; style=&quot;border-style:solid;&quot;&gt;&lt;p style=&quot;margin:0px;margin-left:4px;&quot;&gt;-Aplicativo[] aplicativos&lt;/p&gt;&lt;hr size=&quot;1&quot; style=&quot;border-style:solid;&quot;&gt;&lt;p style=&quot;margin:0px;margin-left:4px;&quot;&gt;&lt;span style=&quot;color: rgb(19, 19, 0); font-family: &amp;quot;trebuchet ms&amp;quot;, verdana, arial, sans-serif; font-size: 16px; text-wrap: nowrap; background-color: rgb(255, 255, 255);&quot;&gt;+&lt;/span&gt;&lt;span style=&quot;color: rgb(31, 35, 40); font-family: ui-monospace, SFMono-Regular, &amp;quot;SF Mono&amp;quot;, Menlo, Consolas, &amp;quot;Liberation Mono&amp;quot;, monospace; font-size: 13.6px; white-space-collapse: break-spaces; background-color: rgba(175, 184, 193, 0.2);&quot;&gt;tocar(): void&lt;/span&gt;&lt;br&gt;+&amp;nbsp;&lt;span style=&quot;color: rgb(31, 35, 40); font-family: ui-monospace, SFMono-Regular, &amp;quot;SF Mono&amp;quot;, Menlo, Consolas, &amp;quot;Liberation Mono&amp;quot;, monospace; font-size: 13.6px; white-space-collapse: break-spaces; background-color: rgba(175, 184, 193, 0.2);&quot;&gt;pausar(): void&lt;/span&gt;&lt;/p&gt;&lt;p style=&quot;margin:0px;margin-left:4px;&quot;&gt;+&amp;nbsp;&lt;span style=&quot;background-color: rgba(175, 184, 193, 0.2); color: rgb(31, 35, 40); font-family: ui-monospace, SFMono-Regular, &amp;quot;SF Mono&amp;quot;, Menlo, Consolas, &amp;quot;Liberation Mono&amp;quot;, monospace; font-size: 13.6px; white-space-collapse: break-spaces;&quot;&gt;selecionarMusica(): void&lt;/span&gt;&lt;span style=&quot;color: rgb(31, 35, 40); font-family: ui-monospace, SFMono-Regular, &amp;quot;SF Mono&amp;quot;, Menlo, Consolas, &amp;quot;Liberation Mono&amp;quot;, monospace; font-size: 13.6px; white-space-collapse: break-spaces; background-color: rgba(175, 184, 193, 0.2);&quot;&gt;&lt;br&gt;&lt;/span&gt;&lt;/p&gt;&lt;p style=&quot;margin:0px;margin-left:4px;&quot;&gt;+&amp;nbsp;&lt;span style=&quot;background-color: rgba(175, 184, 193, 0.2); color: rgb(31, 35, 40); font-family: ui-monospace, SFMono-Regular, &amp;quot;SF Mono&amp;quot;, Menlo, Consolas, &amp;quot;Liberation Mono&amp;quot;, monospace; font-size: 13.6px; white-space-collapse: break-spaces;&quot;&gt;selecionarApp(): void&lt;/span&gt;&lt;span style=&quot;background-color: rgba(175, 184, 193, 0.2); color: rgb(31, 35, 40); font-family: ui-monospace, SFMono-Regular, &amp;quot;SF Mono&amp;quot;, Menlo, Consolas, &amp;quot;Liberation Mono&amp;quot;, monospace; font-size: 13.6px; white-space-collapse: break-spaces;&quot;&gt;&lt;br&gt;&lt;/span&gt;&lt;/p&gt;" style="verticalAlign=top;align=left;overflow=fill;html=1;whiteSpace=wrap;" parent="WIyWlLk6GJQsqaUBKTNV-1" vertex="1">
          <mxGeometry x="20" y="240" width="200" height="150" as="geometry" />
        </mxCell>
        <mxCell id="RjqKDxn6-Rp8gavY7gRw-70" value="" style="edgeStyle=orthogonalEdgeStyle;rounded=0;orthogonalLoop=1;jettySize=auto;html=1;" parent="WIyWlLk6GJQsqaUBKTNV-1" source="RjqKDxn6-Rp8gavY7gRw-10" target="RjqKDxn6-Rp8gavY7gRw-54" edge="1">
          <mxGeometry relative="1" as="geometry" />
        </mxCell>
        <mxCell id="RjqKDxn6-Rp8gavY7gRw-10" value="&lt;p style=&quot;margin:0px;margin-top:4px;text-align:center;&quot;&gt;&lt;i&gt;&amp;lt;&amp;lt;Interface&amp;gt;&amp;gt;&lt;/i&gt;&lt;br&gt;&lt;span style=&quot;color: rgb(19, 19, 0); font-family: &amp;quot;trebuchet ms&amp;quot;, verdana, arial, sans-serif; font-size: 16px; font-weight: 700; text-align: start; text-wrap: nowrap; background-color: rgb(255, 255, 255);&quot;&gt;AparelhoTelefonico&lt;/span&gt;&lt;br&gt;&lt;/p&gt;&lt;hr size=&quot;1&quot; style=&quot;border-style:solid;&quot;&gt;&lt;p style=&quot;margin:0px;margin-left:4px;&quot;&gt;-Aplicativo[] aplicativos&lt;br&gt;&lt;/p&gt;&lt;hr size=&quot;1&quot; style=&quot;border-style:solid;&quot;&gt;&lt;p style=&quot;margin:0px;margin-left:4px;&quot;&gt;+&amp;nbsp;&lt;span style=&quot;color: rgb(31, 35, 40); font-family: ui-monospace, SFMono-Regular, &amp;quot;SF Mono&amp;quot;, Menlo, Consolas, &amp;quot;Liberation Mono&amp;quot;, monospace; font-size: 13.6px; white-space-collapse: break-spaces; background-color: rgba(175, 184, 193, 0.2);&quot;&gt;ligar(): void&lt;/span&gt;&lt;br&gt;+&amp;nbsp;&lt;span style=&quot;background-color: rgba(175, 184, 193, 0.2); color: rgb(31, 35, 40); font-family: ui-monospace, SFMono-Regular, &amp;quot;SF Mono&amp;quot;, Menlo, Consolas, &amp;quot;Liberation Mono&amp;quot;, monospace; font-size: 13.6px; white-space-collapse: break-spaces;&quot;&gt;atender(): void&lt;/span&gt;&lt;/p&gt;&lt;p style=&quot;margin:0px;margin-left:4px;&quot;&gt;+&amp;nbsp;&lt;span style=&quot;background-color: rgba(175, 184, 193, 0.2); color: rgb(31, 35, 40); font-family: ui-monospace, SFMono-Regular, &amp;quot;SF Mono&amp;quot;, Menlo, Consolas, &amp;quot;Liberation Mono&amp;quot;, monospace; font-size: 13.6px; white-space-collapse: break-spaces;&quot;&gt;iniciarCorreioVoz()&lt;/span&gt;&lt;span style=&quot;background-color: rgba(175, 184, 193, 0.2); color: rgb(31, 35, 40); font-family: ui-monospace, SFMono-Regular, &amp;quot;SF Mono&amp;quot;, Menlo, Consolas, &amp;quot;Liberation Mono&amp;quot;, monospace; font-size: 13.6px; white-space-collapse: break-spaces;&quot;&gt;&lt;br&gt;&lt;/span&gt;&lt;/p&gt;&lt;p style=&quot;margin:0px;margin-left:4px;&quot;&gt;+&amp;nbsp;&lt;span style=&quot;white-space-collapse: break-spaces; background-color: rgba(175, 184, 193, 0.2); color: rgb(31, 35, 40); font-family: ui-monospace, SFMono-Regular, &amp;quot;SF Mono&amp;quot;, Menlo, Consolas, &amp;quot;Liberation Mono&amp;quot;, monospace; font-size: 13.6px;&quot;&gt;selecionarApp(): void&lt;/span&gt;&lt;span style=&quot;background-color: rgba(175, 184, 193, 0.2); color: rgb(31, 35, 40); font-family: ui-monospace, SFMono-Regular, &amp;quot;SF Mono&amp;quot;, Menlo, Consolas, &amp;quot;Liberation Mono&amp;quot;, monospace; font-size: 13.6px; white-space-collapse: break-spaces;&quot;&gt;&lt;br&gt;&lt;/span&gt;&lt;/p&gt;" style="verticalAlign=top;align=left;overflow=fill;html=1;whiteSpace=wrap;" parent="WIyWlLk6GJQsqaUBKTNV-1" vertex="1">
          <mxGeometry x="310" y="240" width="190" height="150" as="geometry" />
        </mxCell>
        <mxCell id="RjqKDxn6-Rp8gavY7gRw-11" value="&lt;p style=&quot;margin:0px;margin-top:4px;text-align:center;&quot;&gt;&lt;i&gt;&amp;lt;&amp;lt;Interface&amp;gt;&amp;gt;&lt;/i&gt;&lt;br&gt;&lt;span style=&quot;color: rgb(19, 19, 0); font-family: &amp;quot;trebuchet ms&amp;quot;, verdana, arial, sans-serif; font-size: 16px; font-weight: 700; text-align: start; text-wrap: nowrap; background-color: rgb(255, 255, 255);&quot;&gt;NavegadorInternet&lt;/span&gt;&lt;br&gt;&lt;/p&gt;&lt;hr size=&quot;1&quot; style=&quot;border-style:solid;&quot;&gt;&lt;p style=&quot;margin:0px;margin-left:4px;&quot;&gt;-Aplicativo[] aplicativos&lt;br&gt;&lt;/p&gt;&lt;hr size=&quot;1&quot; style=&quot;border-style:solid;&quot;&gt;&lt;p style=&quot;margin:0px;margin-left:4px;&quot;&gt;+&amp;nbsp;&lt;span style=&quot;color: rgb(31, 35, 40); font-family: ui-monospace, SFMono-Regular, &amp;quot;SF Mono&amp;quot;, Menlo, Consolas, &amp;quot;Liberation Mono&amp;quot;, monospace; font-size: 13.6px; white-space-collapse: break-spaces; background-color: rgba(175, 184, 193, 0.2);&quot;&gt;exibirPagina(): void&lt;/span&gt;&lt;br&gt;+&amp;nbsp;&lt;span style=&quot;background-color: rgba(175, 184, 193, 0.2); color: rgb(31, 35, 40); font-family: ui-monospace, SFMono-Regular, &amp;quot;SF Mono&amp;quot;, Menlo, Consolas, &amp;quot;Liberation Mono&amp;quot;, monospace; font-size: 13.6px; white-space-collapse: break-spaces;&quot;&gt;adicionarNovaAba(): void&lt;/span&gt;&lt;/p&gt;&lt;p style=&quot;margin:0px;margin-left:4px;&quot;&gt;+&amp;nbsp;&lt;span style=&quot;background-color: rgba(175, 184, 193, 0.2); color: rgb(31, 35, 40); font-family: ui-monospace, SFMono-Regular, &amp;quot;SF Mono&amp;quot;, Menlo, Consolas, &amp;quot;Liberation Mono&amp;quot;, monospace; font-size: 13.6px; white-space-collapse: break-spaces;&quot;&gt;atualizarPagina(): void&lt;/span&gt;&lt;br&gt;&lt;/p&gt;&lt;p style=&quot;margin:0px;margin-left:4px;&quot;&gt;+&amp;nbsp;&lt;span style=&quot;white-space-collapse: break-spaces; background-color: rgba(175, 184, 193, 0.2); color: rgb(31, 35, 40); font-family: ui-monospace, SFMono-Regular, &amp;quot;SF Mono&amp;quot;, Menlo, Consolas, &amp;quot;Liberation Mono&amp;quot;, monospace; font-size: 13.6px;&quot;&gt;selecionarApp(): void&lt;/span&gt;&lt;span style=&quot;background-color: rgba(175, 184, 193, 0.2); color: rgb(31, 35, 40); font-family: ui-monospace, SFMono-Regular, &amp;quot;SF Mono&amp;quot;, Menlo, Consolas, &amp;quot;Liberation Mono&amp;quot;, monospace; font-size: 13.6px; white-space-collapse: break-spaces;&quot;&gt;&lt;br&gt;&lt;/span&gt;&lt;/p&gt;" style="verticalAlign=top;align=left;overflow=fill;html=1;whiteSpace=wrap;" parent="WIyWlLk6GJQsqaUBKTNV-1" vertex="1">
          <mxGeometry x="590" y="240" width="200" height="150" as="geometry" />
        </mxCell>
        <mxCell id="RjqKDxn6-Rp8gavY7gRw-77" style="edgeStyle=orthogonalEdgeStyle;rounded=0;orthogonalLoop=1;jettySize=auto;html=1;entryX=0;entryY=0.75;entryDx=0;entryDy=0;" parent="WIyWlLk6GJQsqaUBKTNV-1" source="RjqKDxn6-Rp8gavY7gRw-14" target="RjqKDxn6-Rp8gavY7gRw-15" edge="1">
          <mxGeometry relative="1" as="geometry">
            <Array as="points">
              <mxPoint x="30" y="597" />
            </Array>
          </mxGeometry>
        </mxCell>
        <mxCell id="RjqKDxn6-Rp8gavY7gRw-14" value="&lt;p style=&quot;margin:0px;margin-top:4px;text-align:center;&quot;&gt;&lt;b&gt;Class Spotify&lt;/b&gt;&lt;/p&gt;&lt;hr size=&quot;1&quot; style=&quot;border-style:solid;&quot;&gt;&lt;p style=&quot;margin:0px;margin-left:4px;&quot;&gt;&lt;/p&gt;&lt;p style=&quot;margin:0px;margin-left:4px;&quot;&gt;&lt;br&gt;&lt;/p&gt;" style="verticalAlign=top;align=left;overflow=fill;html=1;whiteSpace=wrap;" parent="WIyWlLk6GJQsqaUBKTNV-1" vertex="1">
          <mxGeometry y="430" width="160" height="40" as="geometry" />
        </mxCell>
        <mxCell id="RjqKDxn6-Rp8gavY7gRw-76" value="" style="edgeStyle=orthogonalEdgeStyle;rounded=0;orthogonalLoop=1;jettySize=auto;html=1;" parent="WIyWlLk6GJQsqaUBKTNV-1" source="RjqKDxn6-Rp8gavY7gRw-15" target="RjqKDxn6-Rp8gavY7gRw-52" edge="1">
          <mxGeometry relative="1" as="geometry" />
        </mxCell>
        <mxCell id="RjqKDxn6-Rp8gavY7gRw-15" value="&lt;p style=&quot;margin:0px;margin-top:4px;text-align:center;&quot;&gt;&lt;b&gt;Class Aplicativos&lt;/b&gt;&lt;/p&gt;&lt;hr size=&quot;1&quot; style=&quot;border-style:solid;&quot;&gt;&lt;p style=&quot;margin:0px;margin-left:4px;&quot;&gt;&lt;/p&gt;&lt;p style=&quot;margin:0px;margin-left:4px;&quot;&gt;&lt;br&gt;&lt;/p&gt;" style="verticalAlign=top;align=left;overflow=fill;html=1;whiteSpace=wrap;" parent="WIyWlLk6GJQsqaUBKTNV-1" vertex="1">
          <mxGeometry x="325" y="559.5" width="160" height="50" as="geometry" />
        </mxCell>
        <mxCell id="RjqKDxn6-Rp8gavY7gRw-79" style="edgeStyle=orthogonalEdgeStyle;rounded=0;orthogonalLoop=1;jettySize=auto;html=1;entryX=1;entryY=0.75;entryDx=0;entryDy=0;" parent="WIyWlLk6GJQsqaUBKTNV-1" source="RjqKDxn6-Rp8gavY7gRw-17" target="RjqKDxn6-Rp8gavY7gRw-15" edge="1">
          <mxGeometry relative="1" as="geometry">
            <Array as="points">
              <mxPoint x="780" y="597" />
            </Array>
          </mxGeometry>
        </mxCell>
        <mxCell id="RjqKDxn6-Rp8gavY7gRw-17" value="&lt;p style=&quot;margin:0px;margin-top:4px;text-align:center;&quot;&gt;&lt;b&gt;Class Chorme&lt;/b&gt;&lt;/p&gt;&lt;hr size=&quot;1&quot; style=&quot;border-style:solid;&quot;&gt;&lt;p style=&quot;margin:0px;margin-left:4px;&quot;&gt;&lt;/p&gt;&lt;p style=&quot;margin:0px;margin-left:4px;&quot;&gt;&lt;br&gt;&lt;/p&gt;" style="verticalAlign=top;align=left;overflow=fill;html=1;whiteSpace=wrap;" parent="WIyWlLk6GJQsqaUBKTNV-1" vertex="1">
          <mxGeometry x="660" y="425" width="160" height="50" as="geometry" />
        </mxCell>
        <mxCell id="RjqKDxn6-Rp8gavY7gRw-78" style="edgeStyle=orthogonalEdgeStyle;rounded=0;orthogonalLoop=1;jettySize=auto;html=1;entryX=0;entryY=0.75;entryDx=0;entryDy=0;" parent="WIyWlLk6GJQsqaUBKTNV-1" source="RjqKDxn6-Rp8gavY7gRw-51" target="RjqKDxn6-Rp8gavY7gRw-15" edge="1">
          <mxGeometry relative="1" as="geometry" />
        </mxCell>
        <mxCell id="RjqKDxn6-Rp8gavY7gRw-51" value="&lt;p style=&quot;margin:0px;margin-top:4px;text-align:center;&quot;&gt;&lt;b&gt;Class Deezer&lt;/b&gt;&lt;/p&gt;&lt;hr size=&quot;1&quot; style=&quot;border-style:solid;&quot;&gt;&lt;p style=&quot;margin:0px;margin-left:4px;&quot;&gt;&lt;/p&gt;&lt;p style=&quot;margin:0px;margin-left:4px;&quot;&gt;&lt;br&gt;&lt;/p&gt;" style="verticalAlign=top;align=left;overflow=fill;html=1;whiteSpace=wrap;" parent="WIyWlLk6GJQsqaUBKTNV-1" vertex="1">
          <mxGeometry x="60" y="490" width="160" height="40" as="geometry" />
        </mxCell>
        <mxCell id="RjqKDxn6-Rp8gavY7gRw-52" value="&lt;p style=&quot;margin:0px;margin-top:4px;text-align:center;&quot;&gt;&lt;b&gt;Class Smartfone&lt;/b&gt;&lt;/p&gt;&lt;hr size=&quot;1&quot; style=&quot;border-style:solid;&quot;&gt;&lt;p style=&quot;margin:0px;margin-left:4px;&quot;&gt;&lt;/p&gt;&lt;p style=&quot;margin:0px;margin-left:4px;&quot;&gt;&lt;br&gt;&lt;/p&gt;" style="verticalAlign=top;align=left;overflow=fill;html=1;whiteSpace=wrap;" parent="WIyWlLk6GJQsqaUBKTNV-1" vertex="1">
          <mxGeometry x="325" y="680" width="160" height="40" as="geometry" />
        </mxCell>
        <mxCell id="RjqKDxn6-Rp8gavY7gRw-81" style="edgeStyle=orthogonalEdgeStyle;rounded=0;orthogonalLoop=1;jettySize=auto;html=1;entryX=1;entryY=0.75;entryDx=0;entryDy=0;" parent="WIyWlLk6GJQsqaUBKTNV-1" source="RjqKDxn6-Rp8gavY7gRw-53" target="RjqKDxn6-Rp8gavY7gRw-15" edge="1">
          <mxGeometry relative="1" as="geometry" />
        </mxCell>
        <mxCell id="RjqKDxn6-Rp8gavY7gRw-53" value="&lt;p style=&quot;margin:0px;margin-top:4px;text-align:center;&quot;&gt;&lt;b&gt;Class Safari&lt;/b&gt;&lt;/p&gt;&lt;hr size=&quot;1&quot; style=&quot;border-style:solid;&quot;&gt;&lt;p style=&quot;margin:0px;margin-left:4px;&quot;&gt;&lt;/p&gt;&lt;p style=&quot;margin:0px;margin-left:4px;&quot;&gt;&lt;br&gt;&lt;/p&gt;" style="verticalAlign=top;align=left;overflow=fill;html=1;whiteSpace=wrap;" parent="WIyWlLk6GJQsqaUBKTNV-1" vertex="1">
          <mxGeometry x="590" y="490" width="160" height="40" as="geometry" />
        </mxCell>
        <mxCell id="RjqKDxn6-Rp8gavY7gRw-75" value="" style="edgeStyle=orthogonalEdgeStyle;rounded=0;orthogonalLoop=1;jettySize=auto;html=1;" parent="WIyWlLk6GJQsqaUBKTNV-1" source="RjqKDxn6-Rp8gavY7gRw-54" target="RjqKDxn6-Rp8gavY7gRw-15" edge="1">
          <mxGeometry relative="1" as="geometry" />
        </mxCell>
        <mxCell id="RjqKDxn6-Rp8gavY7gRw-54" value="&lt;p style=&quot;margin:0px;margin-top:4px;text-align:center;&quot;&gt;&lt;b&gt;Class Contatos&lt;/b&gt;&lt;/p&gt;&lt;hr size=&quot;1&quot; style=&quot;border-style:solid;&quot;&gt;&lt;p style=&quot;margin:0px;margin-left:4px;&quot;&gt;&lt;/p&gt;&lt;p style=&quot;margin:0px;margin-left:4px;&quot;&gt;&lt;br&gt;&lt;/p&gt;" style="verticalAlign=top;align=left;overflow=fill;html=1;whiteSpace=wrap;" parent="WIyWlLk6GJQsqaUBKTNV-1" vertex="1">
          <mxGeometry x="320" y="440" width="160" height="50" as="geometry" />
        </mxCell>
        <mxCell id="RjqKDxn6-Rp8gavY7gRw-69" style="edgeStyle=orthogonalEdgeStyle;rounded=0;orthogonalLoop=1;jettySize=auto;html=1;entryX=0.919;entryY=-0.1;entryDx=0;entryDy=0;entryPerimeter=0;" parent="WIyWlLk6GJQsqaUBKTNV-1" source="RjqKDxn6-Rp8gavY7gRw-9" target="RjqKDxn6-Rp8gavY7gRw-51" edge="1">
          <mxGeometry relative="1" as="geometry">
            <Array as="points">
              <mxPoint x="207" y="420" />
              <mxPoint x="207" y="420" />
            </Array>
          </mxGeometry>
        </mxCell>
        <mxCell id="RjqKDxn6-Rp8gavY7gRw-72" style="edgeStyle=orthogonalEdgeStyle;rounded=0;orthogonalLoop=1;jettySize=auto;html=1;entryX=0.206;entryY=0.02;entryDx=0;entryDy=0;entryPerimeter=0;" parent="WIyWlLk6GJQsqaUBKTNV-1" source="RjqKDxn6-Rp8gavY7gRw-11" target="RjqKDxn6-Rp8gavY7gRw-17" edge="1">
          <mxGeometry relative="1" as="geometry" />
        </mxCell>
        <mxCell id="RjqKDxn6-Rp8gavY7gRw-74" style="edgeStyle=orthogonalEdgeStyle;rounded=0;orthogonalLoop=1;jettySize=auto;html=1;entryX=0.106;entryY=-0.075;entryDx=0;entryDy=0;entryPerimeter=0;" parent="WIyWlLk6GJQsqaUBKTNV-1" source="RjqKDxn6-Rp8gavY7gRw-11" target="RjqKDxn6-Rp8gavY7gRw-53" edge="1">
          <mxGeometry relative="1" as="geometry">
            <Array as="points">
              <mxPoint x="607" y="420" />
              <mxPoint x="607" y="420" />
            </Array>
          </mxGeometry>
        </mxCell>
      </root>
    </mxGraphModel>
  </diagram>
</mxfile>
